<svg width="48" height="31" viewBox="0 0 48 31" fill="none" xmlns="http://www.w3.org/2000/svg">
<path id="Vector" d="M36.5112 8.67762C35.8488 8.67762 35.2008 8.73723 34.5696 8.83977C32.9952 3.72477 28.1184 0 22.3416 0C15.288 0 9.5736 5.55139 9.5736 12.3976C9.5736 13.0081 9.6216 13.609 9.7104 14.2004C9.36882 14.1584 9.02499 14.1369 8.6808 14.136C3.8856 14.136 0 17.9085 0 22.5656C0 27.2228 3.8856 31 8.6808 31H19.2V21.4615H13.2L24 9.53846L34.8 21.4615H28.8V31H36.5112C42.8544 31 48 26.0018 48 19.84C48 13.6734 42.8544 8.67762 36.5112 8.67762Z" fill="#0F9E37"/>
</svg>
